{
  "source": "C:\\Users\\Peter\\Desktop\\stuff\\MIUN\\quantitative_research\\video_compression\\videos\\BVI-HD\\BVI-HD_CDVL_videos\\ORIG\\TreeTrunk_1920x1080_50fps.mp4",
  "output": "C:\\Users\\Peter\\Desktop\\stuff\\MIUN\\quantitative_research\\video_compression\\compressed_videos\\BVI-HD\\vp9\\1.5\\TreeTrunk_1920x1080_50fps_vp9.webm",
  "codec": "vp9",
  "ok": "Input #0, mov,mp4,m4a,3gp,3g2,mj2, from 'C:\\Users\\Peter\\Desktop\\stuff\\MIUN\\quantitative_research\\video_compression\\videos\\BVI-HD\\BVI-HD_CDVL_videos\\ORIG\\TreeTrunk_1920x1080_50fps.mp4':\n  Metadata:\n    major_brand     : isom\n    minor_version   : 512\n    compatible_brands: isomiso2avc1mp41\n    encoder         : Lavf54.28.101\n  Duration: 00:00:05.00, start: 0.000000, bitrate: 622415 kb/s\n  Stream #0:0[0x1](und): Video: h264 (High 4:4:4 Predictive) (avc1 / 0x31637661), yuv420p(progressive), 1920x1080, 622410 kb/s, 50 fps, 50 tbr, 50 tbn (default)\n    Metadata:\n      handler_name    : VideoHandler\n      vendor_id       : [0][0][0][0]\n[out#0/webm @ 00000208e69ff040] Codec AVOption b:a (set bitrate (in bits/s)) has not been used for any stream. The most likely reason is either wrong type (e.g. a video option with no video streams) or that it is a private option of some decoder which was not actually used for any stream.\nStream mapping:\n  Stream #0:0 -> #0:0 (h264 (native) -> vp9 (libvpx-vp9))\nPress [q] to stop, [?] for help\n[libvpx-vp9 @ 00000208e6800980] v1.15.2-100-g40561f514\nOutput #0, webm, to 'C:\\Users\\Peter\\Desktop\\stuff\\MIUN\\quantitative_research\\video_compression\\compressed_videos\\BVI-HD\\vp9\\1.5\\TreeTrunk_1920x1080_50fps_vp9.webm':\n  Metadata:\n    major_brand     : isom\n    minor_version   : 512\n    compatible_brands: isomiso2avc1mp41\n    encoder         : Lavf62.3.100\n  Stream #0:0(und): Video: vp9, yuv420p(tv, progressive), 1920x1080, q=2-31, 1500 kb/s, 50 fps, 1k tbn (default)\n    Metadata:\n      encoder         : Lavc62.11.100 libvpx-vp9\n      handler_name    : VideoHandler\n      vendor_id       : [0][0][0][0]\n    Side data:\n      cpb: bitrate max/min/avg: 0/0/0 buffer size: 1500000 vbv_delay: N/A\nframe=    0 fps=0.0 q=0.0 size=       0KiB time=N/A bitrate=N/A speed=N/A elapsed=0:00:00.52    \nframe=    0 fps=0.0 q=0.0 size=       0KiB time=N/A bitrate=N/A speed=N/A elapsed=0:00:01.15    \nframe=    7 fps=4.1 q=49.0 size=       1KiB time=00:00:00.14 bitrate=  36.2kbits/s speed=0.0815x elapsed=0:00:01.71    \nframe=   11 fps=4.9 q=46.0 size=       1KiB time=00:00:00.22 bitrate=  23.1kbits/s speed=0.0978x elapsed=0:00:02.24    \nframe=   15 fps=5.4 q=43.0 size=       1KiB time=00:00:00.30 bitrate=  16.9kbits/s speed=0.107x elapsed=0:00:02.80    \nframe=   19 fps=5.6 q=43.0 size=       1KiB time=00:00:00.36 bitrate=  14.1kbits/s speed=0.106x elapsed=0:00:03.38    \nframe=   22 fps=5.6 q=43.0 size=       1KiB time=00:00:00.44 bitrate=  11.5kbits/s speed=0.112x elapsed=0:00:03.93    \nframe=   25 fps=5.6 q=42.0 size=       1KiB time=00:00:00.50 bitrate=  10.1kbits/s speed=0.111x elapsed=0:00:04.48    \nframe=   29 fps=5.8 q=42.0 size=       1KiB time=00:00:00.58 bitrate=   8.7kbits/s speed=0.115x elapsed=0:00:05.03    \nframe=   33 fps=5.9 q=43.0 size=       1KiB time=00:00:00.66 bitrate=   7.7kbits/s speed=0.118x elapsed=0:00:05.60    \nframe=   36 fps=5.9 q=39.0 size=       1KiB time=00:00:00.72 bitrate=   7.0kbits/s speed=0.117x elapsed=0:00:06.13    \nframe=   39 fps=5.8 q=40.0 size=       1KiB time=00:00:00.78 bitrate=   6.5kbits/s speed=0.117x elapsed=0:00:06.66    \nframe=   41 fps=5.6 q=40.0 size=       1KiB time=00:00:00.82 bitrate=   6.2kbits/s speed=0.113x elapsed=0:00:07.27    \nframe=   44 fps=5.6 q=40.0 size=       1KiB time=00:00:00.88 bitrate=   5.8kbits/s speed=0.112x elapsed=0:00:07.84    \nframe=   47 fps=5.6 q=39.0 size=       1KiB time=00:00:00.94 bitrate=   5.4kbits/s speed=0.111x elapsed=0:00:08.46    \nframe=   50 fps=5.4 q=39.0 size=       1KiB time=00:00:01.00 bitrate=   5.1kbits/s speed=0.108x elapsed=0:00:09.22    \nframe=   52 fps=5.2 q=39.0 size=       1KiB time=00:00:01.04 bitrate=   4.9kbits/s speed=0.105x elapsed=0:00:09.93    \nframe=   55 fps=5.2 q=40.0 size=       1KiB time=00:00:01.08 bitrate=   4.7kbits/s speed=0.103x elapsed=0:00:10.48    \nframe=   56 fps=4.9 q=32.0 size=       1KiB time=00:00:01.10 bitrate=   4.6kbits/s speed=0.0972x elapsed=0:00:11.31    \nframe=   59 fps=4.9 q=38.0 size=       1KiB time=00:00:01.18 bitrate=   4.3kbits/s speed=0.0987x elapsed=0:00:11.95    \nframe=   62 fps=5.0 q=39.0 size=       1KiB time=00:00:01.24 bitrate=   4.1kbits/s speed=0.0991x elapsed=0:00:12.51    \nframe=   66 fps=5.0 q=39.0 size=       1KiB time=00:00:01.32 bitrate=   3.8kbits/s speed=0.101x elapsed=0:00:13.09    \nframe=   69 fps=5.0 q=38.0 size=       1KiB time=00:00:01.38 bitrate=   3.7kbits/s speed=0.101x elapsed=0:00:13.70    \nframe=   73 fps=5.1 q=38.0 size=       1KiB time=00:00:01.46 bitrate=   3.5kbits/s speed=0.102x elapsed=0:00:14.24    \nframe=   76 fps=5.1 q=39.0 size=       1KiB time=00:00:01.52 bitrate=   3.3kbits/s speed=0.103x elapsed=0:00:14.79    \nframe=   77 fps=5.0 q=39.0 size=       1KiB time=00:00:01.54 bitrate=   3.3kbits/s speed=0.0999x elapsed=0:00:15.42    \nframe=   80 fps=5.0 q=38.0 size=       1KiB time=00:00:01.60 bitrate=   3.2kbits/s speed= 0.1x elapsed=0:00:16.00    \nframe=   84 fps=5.1 q=38.0 size=       1KiB time=00:00:01.68 bitrate=   3.0kbits/s speed=0.101x elapsed=0:00:16.55    \nframe=   88 fps=5.1 q=38.0 size=       1KiB time=00:00:01.74 bitrate=   2.9kbits/s speed=0.102x elapsed=0:00:17.11    \nframe=   89 fps=5.0 q=30.0 size=       1KiB time=00:00:01.76 bitrate=   2.9kbits/s speed=0.0988x elapsed=0:00:17.82    \nframe=   93 fps=5.0 q=37.0 size=       1KiB time=00:00:01.86 bitrate=   2.7kbits/s speed=0.101x elapsed=0:00:18.50    \nframe=   97 fps=5.1 q=38.0 size=       1KiB time=00:00:01.94 bitrate=   2.6kbits/s speed=0.102x elapsed=0:00:19.06    \nframe=   99 fps=5.0 q=38.0 size=       1KiB time=00:00:01.98 bitrate=   2.6kbits/s speed=0.101x elapsed=0:00:19.67    \nframe=  101 fps=5.0 q=38.0 size=       1KiB time=00:00:02.00 bitrate=   2.5kbits/s speed=0.0986x elapsed=0:00:20.29    \nframe=  105 fps=5.0 q=37.0 size=       1KiB time=00:00:02.10 bitrate=   2.4kbits/s speed= 0.1x elapsed=0:00:20.90    \nframe=  108 fps=5.0 q=38.0 size=       1KiB time=00:00:02.16 bitrate=   2.3kbits/s speed=0.101x elapsed=0:00:21.45    \nframe=  110 fps=5.0 q=38.0 size=       1KiB time=00:00:02.20 bitrate=   2.3kbits/s speed=0.0998x elapsed=0:00:22.03    \nframe=  112 fps=4.9 q=40.0 size=       1KiB time=00:00:02.24 bitrate=   2.3kbits/s speed=0.0989x elapsed=0:00:22.64    \nframe=  115 fps=5.0 q=39.0 size=       1KiB time=00:00:02.30 bitrate=   2.2kbits/s speed=0.0991x elapsed=0:00:23.21    \nframe=  119 fps=5.0 q=39.0 size=       1KiB time=00:00:02.38 bitrate=   2.1kbits/s speed= 0.1x elapsed=0:00:23.73    \nframe=  122 fps=5.0 q=38.0 size=       1KiB time=00:00:02.44 bitrate=   2.1kbits/s speed=0.101x elapsed=0:00:24.27    \nframe=  124 fps=5.0 q=38.0 size=       1KiB time=00:00:02.48 bitrate=   2.0kbits/s speed=0.0996x elapsed=0:00:24.89    \nframe=  126 fps=4.9 q=39.0 size=       1KiB time=00:00:02.52 bitrate=   2.0kbits/s speed=0.0988x elapsed=0:00:25.50    \nframe=  128 fps=4.9 q=39.0 size=       1KiB time=00:00:02.56 bitrate=   2.0kbits/s speed=0.0984x elapsed=0:00:26.02    \nframe=  131 fps=4.9 q=37.0 size=     768KiB time=00:00:02.62 bitrate=2401.3kbits/s speed=0.0986x elapsed=0:00:26.56    \nframe=  134 fps=4.9 q=37.0 size=     768KiB time=00:00:02.66 bitrate=2365.2kbits/s speed=0.0979x elapsed=0:00:27.16    \nframe=  137 fps=4.9 q=38.0 size=     768KiB time=00:00:02.74 bitrate=2296.2kbits/s speed=0.0985x elapsed=0:00:27.81    \nframe=  139 fps=4.9 q=38.0 size=     768KiB time=00:00:02.78 bitrate=2263.1kbits/s speed=0.0981x elapsed=0:00:28.33    \nframe=  142 fps=4.9 q=37.0 size=     768KiB time=00:00:02.84 bitrate=2215.3kbits/s speed=0.0982x elapsed=0:00:28.91    \nframe=  145 fps=4.9 q=37.0 size=     768KiB time=00:00:02.88 bitrate=2184.5kbits/s speed=0.0972x elapsed=0:00:29.61    \nframe=  147 fps=4.9 q=38.0 size=     768KiB time=00:00:02.94 bitrate=2140.0kbits/s speed=0.0972x elapsed=0:00:30.24    \nframe=  150 fps=4.9 q=38.0 size=     768KiB time=00:00:03.00 bitrate=2097.2kbits/s speed=0.0974x elapsed=0:00:30.78    \nframe=  152 fps=4.8 q=39.0 size=     768KiB time=00:00:03.04 bitrate=2069.6kbits/s speed=0.0969x elapsed=0:00:31.35    \nframe=  154 fps=4.8 q=37.0 size=     768KiB time=00:00:03.08 bitrate=2042.7kbits/s speed=0.0963x elapsed=0:00:31.97    \nframe=  158 fps=4.9 q=37.0 size=     768KiB time=00:00:03.16 bitrate=1991.0kbits/s speed=0.0971x elapsed=0:00:32.55    \nframe=  161 fps=4.9 q=38.0 size=     768KiB time=00:00:03.22 bitrate=1953.9kbits/s speed=0.0972x elapsed=0:00:33.12    \nframe=  162 fps=4.8 q=30.0 size=     768KiB time=00:00:03.24 bitrate=1941.8kbits/s speed=0.096x elapsed=0:00:33.73    \nframe=  165 fps=4.8 q=37.0 size=     768KiB time=00:00:03.30 bitrate=1906.5kbits/s speed=0.0963x elapsed=0:00:34.26    \nframe=  169 fps=4.9 q=37.0 size=     768KiB time=00:00:03.38 bitrate=1861.4kbits/s speed=0.097x elapsed=0:00:34.82    \nframe=  172 fps=4.8 q=38.0 size=     768KiB time=00:00:03.42 bitrate=1839.6kbits/s speed=0.0964x elapsed=0:00:35.46    \nframe=  173 fps=4.8 q=30.0 size=     768KiB time=00:00:03.46 bitrate=1818.3kbits/s speed=0.0957x elapsed=0:00:36.13    \nframe=  177 fps=4.8 q=37.0 size=     768KiB time=00:00:03.54 bitrate=1777.2kbits/s speed=0.0965x elapsed=0:00:36.69    \nframe=  180 fps=4.8 q=39.0 size=     768KiB time=00:00:03.60 bitrate=1747.6kbits/s speed=0.0967x elapsed=0:00:37.21    \nframe=  183 fps=4.8 q=39.0 size=     768KiB time=00:00:03.66 bitrate=1719.0kbits/s speed=0.0969x elapsed=0:00:37.76    \nframe=  186 fps=4.8 q=39.0 size=     768KiB time=00:00:03.72 bitrate=1691.3kbits/s speed=0.0969x elapsed=0:00:38.39    \nframe=  190 fps=4.9 q=39.0 size=     768KiB time=00:00:03.78 bitrate=1664.4kbits/s speed=0.0971x elapsed=0:00:38.92    \nframe=  192 fps=4.9 q=39.0 size=     768KiB time=00:00:03.84 bitrate=1638.4kbits/s speed=0.0972x elapsed=0:00:39.52    \nframe=  194 fps=4.8 q=40.0 size=     768KiB time=00:00:03.88 bitrate=1621.5kbits/s speed=0.0969x elapsed=0:00:40.03    \nframe=  198 fps=4.9 q=39.0 size=     768KiB time=00:00:03.96 bitrate=1588.8kbits/s speed=0.0976x elapsed=0:00:40.55    \nframe=  200 fps=4.9 q=40.0 size=     768KiB time=00:00:04.00 bitrate=1572.9kbits/s speed=0.0972x elapsed=0:00:41.13    \nframe=  203 fps=4.9 q=41.0 size=     768KiB time=00:00:04.06 bitrate=1549.6kbits/s speed=0.0974x elapsed=0:00:41.69    \nframe=  205 fps=4.8 q=43.0 size=     768KiB time=00:00:04.10 bitrate=1534.5kbits/s speed=0.097x elapsed=0:00:42.27    \nframe=  208 fps=4.9 q=42.0 size=     768KiB time=00:00:04.16 bitrate=1512.4kbits/s speed=0.0971x elapsed=0:00:42.83    \nframe=  211 fps=4.9 q=42.0 size=     768KiB time=00:00:04.22 bitrate=1490.9kbits/s speed=0.0972x elapsed=0:00:43.40    \nframe=  214 fps=4.9 q=42.0 size=     768KiB time=00:00:04.28 bitrate=1470.0kbits/s speed=0.0973x elapsed=0:00:43.98    \nframe=  216 fps=4.8 q=43.0 size=     768KiB time=00:00:04.32 bitrate=1456.4kbits/s speed=0.0969x elapsed=0:00:44.57    \nframe=  220 fps=4.9 q=42.0 size=     768KiB time=00:00:04.40 bitrate=1429.9kbits/s speed=0.0975x elapsed=0:00:45.14    \nframe=  224 fps=4.9 q=43.0 size=     768KiB time=00:00:04.48 bitrate=1404.3kbits/s speed=0.098x elapsed=0:00:45.70    \nframe=  226 fps=4.9 q=43.0 size=     768KiB time=00:00:04.52 bitrate=1391.9kbits/s speed=0.0976x elapsed=0:00:46.29    \nframe=  226 fps=4.8 q=43.0 size=     768KiB time=00:00:04.52 bitrate=1391.9kbits/s speed=0.0963x elapsed=0:00:46.91    \nframe=  226 fps=4.8 q=43.0 size=     768KiB time=00:00:04.52 bitrate=1391.9kbits/s speed=0.0951x elapsed=0:00:47.54    \nframe=  226 fps=4.7 q=43.0 size=     768KiB time=00:00:04.52 bitrate=1391.9kbits/s speed=0.0937x elapsed=0:00:48.24    \nframe=  226 fps=4.6 q=43.0 size=     768KiB time=00:00:04.52 bitrate=1391.9kbits/s speed=0.0924x elapsed=0:00:48.90    \nframe=  226 fps=4.6 q=43.0 size=     768KiB time=00:00:04.52 bitrate=1391.9kbits/s speed=0.0912x elapsed=0:00:49.58    \nframe=  226 fps=4.5 q=43.0 size=     768KiB time=00:00:04.52 bitrate=1391.9kbits/s speed=0.0899x elapsed=0:00:50.25    \nframe=  226 fps=4.4 q=43.0 size=     768KiB time=00:00:04.52 bitrate=1391.9kbits/s speed=0.0887x elapsed=0:00:50.93    \nframe=  226 fps=4.4 q=43.0 size=     768KiB time=00:00:04.52 bitrate=1391.9kbits/s speed=0.0876x elapsed=0:00:51.58    \nframe=  226 fps=4.3 q=43.0 size=     768KiB time=00:00:04.52 bitrate=1391.9kbits/s speed=0.0866x elapsed=0:00:52.17    \n[out#0/webm @ 00000208e69ff040] video:1827KiB audio:0KiB subtitle:0KiB other streams:0KiB global headers:0KiB muxing overhead: 0.131897%\nframe=  250 fps=4.7 q=45.0 Lsize=    1830KiB time=00:00:05.00 bitrate=2997.8kbits/s speed=0.0949x elapsed=0:00:52.66    \n",
  "seconds": 53.275681495666504,
  "probe_out": {}
}